HIERARCHY
ROOT SpineBase
{
  OFFSET 0.000000 0.000000 0.000000
  CHANNELS 6 Xposition Yposition Zposition Zrotation Xrotation Yrotation
  JOINT SpineMid
  {
    OFFSET 0.000000 31.927995 0.000000
    CHANNELS 3 Zrotation Xrotation Yrotation
    JOINT SpineShoulder
    {
      OFFSET -0.294725 23.499047 -0.712291
      CHANNELS 3 Zrotation Xrotation Yrotation
      JOINT Neck
      {
        OFFSET -0.175191 7.720986 -0.557634
        CHANNELS 3 Zrotation Xrotation Yrotation
        JOINT Head
        {
          OFFSET -4.799508 11.968139 2.276365
          CHANNELS 3 Zrotation Xrotation Yrotation
          End Site
          {
            OFFSET 0 0 0
          }
        }
      }
      JOINT ShoulderLeft
      {
        OFFSET -13.435178 -5.892751 9.013829
        CHANNELS 3 Zrotation Xrotation Yrotation
        JOINT ElbowLeft
        {
          OFFSET 0.892413 -26.539255 10.058255
          CHANNELS 3 Zrotation Xrotation Yrotation
          JOINT WristLeft
          {
            OFFSET 0.993813 -24.898144 -6.758698
            CHANNELS 3 Zrotation Xrotation Yrotation
            JOINT HandLeft
            {
              OFFSET 0.522758 -3.908470 4.640817
              CHANNELS 3 Zrotation Xrotation Yrotation
              JOINT HandTipLeft
              {
                OFFSET -0.010646 -1.959655 -0.636297
                CHANNELS 3 Zrotation Xrotation Yrotation
                End Site
                {
                  OFFSET 0 0 0
                }
              }
              JOINT ThumbLeft
              {
                OFFSET 0.022244 0.505977 -1.943561
                CHANNELS 3 Zrotation Xrotation Yrotation
                End Site
                {
                  OFFSET 0 0 0
                }
              }
            }
          }
        }
      }
      JOINT ShoulderRight
      {
        OFFSET 3.258633 -5.280282 -14.379471
        CHANNELS 3 Zrotation Xrotation Yrotation
        JOINT ElbowRight
        {
          OFFSET 2.669922 -23.418472 -6.285299
          CHANNELS 3 Zrotation Xrotation Yrotation
          JOINT WristRight
          {
            OFFSET -6.025421 -20.544258 -1.358953
            CHANNELS 3 Zrotation Xrotation Yrotation
            JOINT HandRight
            {
              OFFSET 0.257128 -5.967256 0.902480
              CHANNELS 3 Zrotation Xrotation Yrotation
              JOINT HandTipRight
              {
                OFFSET -3.094422 -6.184768 0.419294
                CHANNELS 3 Zrotation Xrotation Yrotation
                End Site
                {
                  OFFSET 0 0 0
                }
              }
              JOINT ThumbRight
              {
                OFFSET 2.960256 -0.417287 1.899105
                CHANNELS 3 Zrotation Xrotation Yrotation
                End Site
                {
                  OFFSET 0 0 0
                }
              }
            }
          }
        }
      }
    }
  }
  JOINT HipLeft
  {
    OFFSET -5.014923 -0.301498 2.268008
    CHANNELS 3 Zrotation Xrotation Yrotation
    JOINT KneeLeft
    {
      OFFSET 4.777777 -29.773603 8.933898
      CHANNELS 3 Zrotation Xrotation Yrotation
      JOINT AnkleLeft
      {
        OFFSET 5.595597 -30.980676 6.847929
        CHANNELS 3 Zrotation Xrotation Yrotation
        JOINT FootLeft
        {
          OFFSET -4.581537 -5.575764 -1.872428
          CHANNELS 3 Zrotation Xrotation Yrotation
          End Site
          {
            OFFSET 0 0 0
          }
        }
      }
    }
  }
  JOINT HipRight
  {
    OFFSET 4.261304 1.639770 -8.884214
    CHANNELS 3 Zrotation Xrotation Yrotation
    JOINT KneeRight
    {
      OFFSET 8.627453 -28.070599 -3.900381
      CHANNELS 3 Zrotation Xrotation Yrotation
      JOINT AnkleRight
      {
        OFFSET 8.365585 -32.433859 -2.709473
        CHANNELS 3 Zrotation Xrotation Yrotation
        JOINT FootRight
        {
          OFFSET -4.150859 -6.089828 -6.752417
          CHANNELS 3 Zrotation Xrotation Yrotation
          End Site
          {
            OFFSET 0 0 0
          }
        }
      }
    }
  }
}
MOTION
Frames: 5
Frame Time: 0.033333
34.664918 68.122342 329.587711 2.500803 0.208291 51.432379 0.382221 0.121158 -51.357774 -0.425456 0.168958 0.084416 -1.149436 -1.832521 -0.805907 0.000000 0.000000 0.000000 -2.220972 -0.744197 -0.191732 -0.000000 0.000000 0.000000 -5.476078 -20.787845 -8.506405 -4.246310 28.913209 11.472367 0.000000 0.000000 0.000000 0.000000 0.000000 0.000000 3.251742 0.669293 -1.482271 -2.891761 -0.254754 0.723260 -6.616216 -11.853782 -1.020002 2.250903 7.799262 2.244644 0.000000 0.000000 0.000000 0.000000 0.000000 0.000000 -1.984655 4.508439 -51.840678 2.272214 -1.451242 0.474464 -0.337551 -11.103127 9.498394 0.000000 0.000000 0.000000 -1.873619 3.387807 -50.955392 1.450811 -1.716307 -0.665400 0.368303 1.489612 -0.790560 0.000000 0.000000 0.000000
34.415506 68.132225 329.634085 2.195214 0.308820 51.398342 -0.202701 0.479380 -51.350468 -0.442732 0.339362 0.045846 -3.919359 -3.994172 -1.024613 0.000000 0.000000 0.000000 -1.252522 -0.786079 -0.116865 -0.000000 0.000000 0.000000 -13.668103 -20.534070 -17.843951 -3.016683 35.924355 20.640004 0.000000 0.000000 0.000000 0.000000 0.000000 0.000000 4.175202 0.141603 -1.426627 -2.784174 1.046500 0.508835 -7.519727 -11.095940 -0.951402 4.735529 6.805622 1.867339 0.000000 0.000000 0.000000 0.000000 0.000000 0.000000 -1.894023 4.427900 -51.850269 2.459869 -1.571609 0.515852 0.556892 -10.660664 8.948560 0.000000 0.000000 0.000000 -0.955752 3.423637 -50.739086 1.410668 -3.113784 -1.033292 0.450992 1.819221 -0.834556 0.000000 0.000000 0.000000
34.148885 68.192774 329.713015 1.884139 0.472417 51.243527 -1.547987 1.173519 -51.235441 -0.000000 0.000000 0.000000 -7.872771 -6.131447 -1.438000 0.000000 0.000000 0.000000 -0.000000 0.000000 0.000000 -0.000000 0.000000 0.000000 -17.651240 -15.444993 -22.184849 -2.502886 38.285653 26.048192 0.000000 0.000000 0.000000 0.000000 0.000000 0.000000 4.236945 0.610270 -1.084516 -1.901344 2.045166 0.058142 -6.364207 -11.259024 -0.576585 3.562688 9.432095 0.272372 0.000000 0.000000 0.000000 0.000000 0.000000 0.000000 -1.442747 4.451011 -51.649082 2.506106 -2.115487 0.454754 1.608924 -10.024471 8.180817 0.000000 0.000000 0.000000 0.020556 3.449594 -50.375679 1.194074 -4.578689 -1.410527 0.913966 2.050655 -1.163239 0.000000 0.000000 0.000000
33.575539 68.366120 329.797320 0.107133 -0.184175 49.179977 -1.837782 1.510194 -49.226624 -0.384191 0.519848 -0.101837 -11.905395 -9.009604 -1.940607 0.000000 0.000000 0.000000 1.293651 -3.748004 -0.481209 1.059892 2.739956 0.621979 -16.467554 -7.039435 -20.445792 -1.170803 36.641973 25.247372 0.000000 0.000000 0.000000 0.000000 0.000000 0.000000 2.620236 0.075283 0.189172 1.086536 3.056928 -0.998635 -5.608857 -10.247892 -0.591123 2.652325 8.914036 -0.015563 0.000000 0.000000 0.000000 0.000000 0.000000 0.000000 -0.232560 2.869923 -49.596741 3.228925 -2.435936 0.536944 1.983518 -8.657587 7.425707 0.000000 0.000000 0.000000 2.833423 2.804411 -48.068438 0.799656 -6.214839 -1.802795 1.260695 2.244644 -1.560584 0.000000 0.000000 0.000000
33.236745 68.240666 329.419507 -2.260546 -0.822371 42.213951 -2.413483 1.668274 -42.353745 -0.354102 0.571576 -0.210431 -16.823015 -11.343890 -2.469288 0.000000 0.000000 0.000000 5.115330 -2.345170 0.116919 2.295169 2.536114 -0.374655 -13.787327 -1.694506 -13.886242 0.755587 49.297460 17.638931 0.000000 0.000000 0.000000 0.000000 0.000000 0.000000 -0.018632 0.268682 1.881825 4.597211 3.422394 -2.294707 -5.899201 -7.678070 -1.018172 2.445023 7.730097 -0.434293 0.000000 0.000000 0.000000 0.000000 0.000000 0.000000 0.240641 0.123322 -42.968402 3.823124 -0.768356 0.846717 1.893797 -7.806978 6.833911 0.000000 0.000000 0.000000 5.348265 3.210130 -40.636549 1.479072 -8.058615 -2.332751 1.276806 2.591145 -1.923928 0.000000 0.000000 0.000000
